HIERARCHY
ROOT FK_back1_jnt
{
	OFFSET 	 -9.03919179143e-24	 93.6859384919	 -5.39978849888
	CHANNELS 6 Xposition Yposition Zposition Xrotation Yrotation Zrotation 
	JOINT FK_back2_jnt
	{
		OFFSET 	 -5.07521955259e-32	 21.575746994	 2.55856149323e-15
		CHANNELS 3 Xrotation Yrotation Zrotation 
		JOINT FK_back3_jnt
		{
			OFFSET 	 -1.84991372899e-15	 21.3381549072	 -4.41273915431e-15
			CHANNELS 3 Xrotation Yrotation Zrotation 
			JOINT FK_back4_jnt
			{
				OFFSET 	 7.13561746935e-08	 20.6892725181	 -1.85451587118e-14
				CHANNELS 3 Xrotation Yrotation Zrotation 
				JOINT head_jnt
				{
					OFFSET 	 0.0	 4.56834155083	 2.22645627499
					CHANNELS 3 Xrotation Yrotation Zrotation 
					JOINT head_end_jnt
					{
						OFFSET 	 18.7350143814	 1.95987670537e-14	 5.20993659202e-15
						CHANNELS 3 Xrotation Yrotation Zrotation 
						End Site
						{
							OFFSET 	 0.0	 0.0	 0.0
						}
					}
				}
			}
			JOINT R_shoulder_jnt
			{
				OFFSET 	 -5.02810787917	 11.0446819496	 -0.766724411844
				CHANNELS 3 Xrotation Yrotation Zrotation 
				JOINT R_shoulderEnd_jnt
				{
					OFFSET 	 -1.5839241305e-05	 7.13778284625e-05	 -13.4107729912
					CHANNELS 3 Xrotation Yrotation Zrotation 
					End Site
					{
						OFFSET 	 0.0	 0.0	 0.0
					}
				}
				JOINT R_upArm_jnt
				{
					OFFSET 	 -1.5839241305e-05	 7.13778284625e-05	 -13.4107729912
					CHANNELS 3 Xrotation Yrotation Zrotation 
					JOINT R_lowArm_jnt
					{
						OFFSET 	 1.07062362713e-05	 0.000190046985954	 -28.1030956649
						CHANNELS 3 Xrotation Yrotation Zrotation 
						JOINT R_hand_jnt
						{
							OFFSET 	 -8.36230678396e-05	 -0.000255132227903	 -25.9244641113
							CHANNELS 3 Xrotation Yrotation Zrotation 
							JOINT R_hand_end_jnt
							{
								OFFSET 	 0.10265159294	 0.0538251896948	 -2.90231164218
								CHANNELS 3 Xrotation Yrotation Zrotation 
								End Site
								{
									OFFSET 	 0.0	 0.0	 0.0
								}
							}
							JOINT R_handRoot_jnt
							{
								OFFSET 	 -4.51194637208e-15	 0.0	 1.80477854883e-14
								CHANNELS 3 Xrotation Yrotation Zrotation 
								JOINT R_index_root_jnt
								{
									OFFSET 	 2.18889073849	 0.193659543246	 -5.82440405368
									CHANNELS 3 Xrotation Yrotation Zrotation 
									JOINT R_index_base_jnt
									{
										OFFSET 	 8.61985740358e-06	 0.000161348426627	 -3.56508671523
										CHANNELS 3 Xrotation Yrotation Zrotation 
										JOINT R_index_mid_jnt
										{
											OFFSET 	 -1.54280890729e-05	 -8.60472209751e-05	 -3.1841291666
											CHANNELS 3 Xrotation Yrotation Zrotation 
											JOINT R_index_tip_jnt
											{
												OFFSET 	 7.11479811071e-05	 9.2675666092e-05	 -1.97126730323
												CHANNELS 3 Xrotation Yrotation Zrotation 
												JOINT R_index_end_jnt
												{
													OFFSET 	 -3.53859401365e-05	 -7.45900639959e-05	 -2.36193371296
													CHANNELS 3 Xrotation Yrotation Zrotation 
													End Site
													{
														OFFSET 	 0.0	 0.0	 0.0
													}
												}
											}
										}
									}
								}
								JOINT R_middle_root_jnt
								{
									OFFSET 	 0.622703633308	 -0.355706129968	 -5.79325224875
									CHANNELS 3 Xrotation Yrotation Zrotation 
									JOINT R_middle_base_jnt
									{
										OFFSET 	 0.149592967108	 0.0282963500732	 -3.90761486291
										CHANNELS 3 Xrotation Yrotation Zrotation 
										JOINT R_middle_mid_jnt
										{
											OFFSET 	 -2.87143928655e-05	 0.000101051215388	 -4.02427138091
											CHANNELS 3 Xrotation Yrotation Zrotation 
											JOINT R_middle_tip_jnt
											{
												OFFSET 	 9.386881934e-06	 -2.92620706751e-05	 -2.46101469278
												CHANNELS 3 Xrotation Yrotation Zrotation 
												JOINT R_middle_end_jnt
												{
													OFFSET 	 -1.19204289058e-05	 -6.56505320875e-05	 -2.58405678273
													CHANNELS 3 Xrotation Yrotation Zrotation 
													End Site
													{
														OFFSET 	 0.0	 0.0	 0.0
													}
												}
											}
										}
									}
								}
								JOINT R_ring_base_jnt
								{
									OFFSET 	 -0.860241066218	 -0.293728191405	 -5.6523166895
									CHANNELS 3 Xrotation Yrotation Zrotation 
									JOINT R_ring_root_jnt
									{
										OFFSET 	 -3.36612325372e-05	 6.1376858066e-05	 -3.73492040157
										CHANNELS 3 Xrotation Yrotation Zrotation 
										JOINT R_ring_mid_jnt
										{
											OFFSET 	 1.5421643559e-06	 8.63604080949e-05	 -3.96364553929
											CHANNELS 3 Xrotation Yrotation Zrotation 
											JOINT R_ring_tip_jnt
											{
												OFFSET 	 0.0719271452353	 -0.000405393185501	 -2.20122934461
												CHANNELS 3 Xrotation Yrotation Zrotation 
												JOINT R_ring_end_jnt
												{
													OFFSET 	 -0.16243486017	 -0.212977382094	 -2.21652531624
													CHANNELS 3 Xrotation Yrotation Zrotation 
													End Site
													{
														OFFSET 	 0.0	 0.0	 0.0
													}
												}
											}
										}
									}
								}
								JOINT R_pinky_root_jnt
								{
									OFFSET 	 -2.54017834425	 0.2934527646	 -5.82288827897
									CHANNELS 3 Xrotation Yrotation Zrotation 
									JOINT R_pinky_base_jnt
									{
										OFFSET 	 -0.137079366371	 -0.756746974588	 -3.35262633085
										CHANNELS 3 Xrotation Yrotation Zrotation 
										JOINT R_pinky_mid_jnt
										{
											OFFSET 	 -4.90693425672e-05	 0.000134714769592	 -2.94557571651
											CHANNELS 3 Xrotation Yrotation Zrotation 
											JOINT R_pinky_tip_jnt
											{
												OFFSET 	 2.2762860408e-05	 -3.75120258651e-05	 -1.96028535485
												CHANNELS 3 Xrotation Yrotation Zrotation 
												JOINT R_pinky_end_jnt
												{
													OFFSET 	 1.58490835565e-05	 5.64041427787e-05	 -2.12846095443
													CHANNELS 3 Xrotation Yrotation Zrotation 
													End Site
													{
														OFFSET 	 0.0	 0.0	 0.0
													}
												}
											}
										}
									}
								}
								JOINT R_thumb_base_jnt
								{
									OFFSET 	 2.90740489961	 2.65597977876	 -4.55510410786
									CHANNELS 3 Xrotation Yrotation Zrotation 
									JOINT R_thumb_mid_jnt
									{
										OFFSET 	 0.00018164590525	 4.99778005179e-05	 -2.33656946659
										CHANNELS 3 Xrotation Yrotation Zrotation 
										JOINT R_thumb_tip_jnt
										{
											OFFSET 	 -0.000142892702279	 -8.75702715711e-05	 -2.31779093742
											CHANNELS 3 Xrotation Yrotation Zrotation 
											JOINT R_thumb_end_jnt
											{
												OFFSET 	 0.000102644937069	 -3.11474353293e-05	 -2.01632344961
												CHANNELS 3 Xrotation Yrotation Zrotation 
												End Site
												{
													OFFSET 	 0.0	 0.0	 0.0
												}
											}
										}
									}
								}
							}
						}
					}
				}
			}
			JOINT L_shoulder_jnt
			{
				OFFSET 	 5.02809879542	 11.0445620441	 -0.766726531385
				CHANNELS 3 Xrotation Yrotation Zrotation 
				JOINT L_shoulderEnd_jnt
				{
					OFFSET 	 4.22994972383e-15	 9.19132825406e-15	 13.4107657242
					CHANNELS 3 Xrotation Yrotation Zrotation 
					End Site
					{
						OFFSET 	 0.0	 0.0	 0.0
					}
				}
				JOINT L_upArm_jnt
				{
					OFFSET 	 4.51194637208e-15	 0.0	 13.4107657242
					CHANNELS 3 Xrotation Yrotation Zrotation 
					JOINT L_lowArm_jnt
					{
						OFFSET 	 1.26898491715e-15	 1.58623114643e-16	 28.1030399513
						CHANNELS 3 Xrotation Yrotation Zrotation 
						JOINT L_hand_jnt
						{
							OFFSET 	 -1.35358391162e-14	 -1.80477854883e-14	 25.9245149804
							CHANNELS 3 Xrotation Yrotation Zrotation 
							JOINT L_hand_end_jnt
							{
								OFFSET 	 -0.102709359899	 -0.0537208070232	 2.90217538596
								CHANNELS 3 Xrotation Yrotation Zrotation 
								End Site
								{
									OFFSET 	 0.0	 0.0	 0.0
								}
							}
							JOINT L_handRoot_jnt
							{
								OFFSET 	 0.0	 -1.80477854883e-14	 0.0
								CHANNELS 3 Xrotation Yrotation Zrotation 
								JOINT L_index_root_jnt
								{
									OFFSET 	 -2.18891465902	 -0.193594916165	 5.82433501719
									CHANNELS 3 Xrotation Yrotation Zrotation 
									JOINT L_index_base_jnt
									{
										OFFSET 	 7.47455274556e-15	 -7.06891470644e-15	 3.5650767231
										CHANNELS 3 Xrotation Yrotation Zrotation 
										JOINT L_index_mid_jnt
										{
											OFFSET 	 -6.1328531966e-15	 -1.19092292994e-14	 3.18411887168
											CHANNELS 3 Xrotation Yrotation Zrotation 
											JOINT L_index_tip_jnt
											{
												OFFSET 	 3.8237622547e-15	 -1.08607059418e-14	 1.97139886618
												CHANNELS 3 Xrotation Yrotation Zrotation 
												JOINT L_index_end_jnt
												{
													OFFSET 	 -1.70645466828e-15	 -9.79154466892e-15	 2.36184469223
													CHANNELS 3 Xrotation Yrotation Zrotation 
													End Site
													{
														OFFSET 	 0.0	 0.0	 0.0
													}
												}
											}
										}
									}
								}
								JOINT L_middle_root_jnt
								{
									OFFSET 	 -0.622723882497	 0.355858850478	 5.79329161167
									CHANNELS 3 Xrotation Yrotation Zrotation 
									JOINT L_middle_base_jnt
									{
										OFFSET 	 -0.149579587504	 -0.0283710615336	 3.9075397706
										CHANNELS 3 Xrotation Yrotation Zrotation 
										JOINT L_middle_mid_jnt
										{
											OFFSET 	 -8.45011028788e-15	 -5.1581616184e-15	 4.02421051979
											CHANNELS 3 Xrotation Yrotation Zrotation 
											JOINT L_middle_tip_jnt
											{
												OFFSET 	 -5.96887186165e-15	 1.51297004286e-14	 2.46104012728
												CHANNELS 3 Xrotation Yrotation Zrotation 
												JOINT L_middle_end_jnt
												{
													OFFSET 	 5.08395924949e-15	 -4.25607521631e-15	 2.58403195382
													CHANNELS 3 Xrotation Yrotation Zrotation 
													End Site
													{
														OFFSET 	 0.0	 0.0	 0.0
													}
												}
											}
										}
									}
								}
								JOINT L_pinky_root_jnt
								{
									OFFSET 	 2.54013443946	 -0.293361567556	 5.82279562474
									CHANNELS 3 Xrotation Yrotation Zrotation 
									JOINT L_pinky_base_jnt
									{
										OFFSET 	 0.137103504538	 0.756750532389	 3.35272534371
										CHANNELS 3 Xrotation Yrotation Zrotation 
										JOINT L_pinky_mid_jnt
										{
											OFFSET 	 6.65480151402e-15	 -1.62108980651e-14	 2.94556996346
											CHANNELS 3 Xrotation Yrotation Zrotation 
											JOINT L_pinky_tip_jnt
											{
												OFFSET 	 5.55416002445e-15	 1.56721395551e-15	 1.96032956243
												CHANNELS 3 Xrotation Yrotation Zrotation 
												JOINT L_pinky_end_jnt
												{
													OFFSET 	 7.20676974213e-15	 2.27579139378e-15	 2.12848124146
													CHANNELS 3 Xrotation Yrotation Zrotation 
													End Site
													{
														OFFSET 	 0.0	 0.0	 0.0
													}
												}
											}
										}
									}
								}
								JOINT L_ring_base_jnt
								{
									OFFSET 	 0.860210862755	 0.29377993092	 5.65224462508
									CHANNELS 3 Xrotation Yrotation Zrotation 
									JOINT L_ring_root_jnt
									{
										OFFSET 	 1.13642366544e-14	 4.9693685285e-15	 3.73485893489
										CHANNELS 3 Xrotation Yrotation Zrotation 
										JOINT L_ring_mid_jnt
										{
											OFFSET 	 -5.80543767081e-16	 1.35633843058e-14	 3.9636703682
											CHANNELS 3 Xrotation Yrotation Zrotation 
											JOINT L_ring_tip_jnt
											{
												OFFSET 	 -0.0719312234596	 0.000451976593177	 2.20121253967
												CHANNELS 3 Xrotation Yrotation Zrotation 
												JOINT L_ring_end_jnt
												{
													OFFSET 	 0.162478291839	 0.213068370968	 2.21665733337
													CHANNELS 3 Xrotation Yrotation Zrotation 
													End Site
													{
														OFFSET 	 0.0	 0.0	 0.0
													}
												}
											}
										}
									}
								}
								JOINT L_thumb_base_jnt
								{
									OFFSET 	 -2.90745364904	 -2.65589045524	 4.55500327827
									CHANNELS 3 Xrotation Yrotation Zrotation 
									JOINT L_thumb_mid_jnt
									{
										OFFSET 	 3.11958792131e-15	 -3.80695475143e-15	 2.33651980877
										CHANNELS 3 Xrotation Yrotation Zrotation 
										JOINT L_thumb_tip_jnt
										{
											OFFSET 	 1.13151155112e-14	 3.38395977906e-15	 2.31789176702
											CHANNELS 3 Xrotation Yrotation Zrotation 
											JOINT L_thumb_end_jnt
											{
												OFFSET 	 4.30961654158e-15	 6.99216755938e-16	 2.01643881321
												CHANNELS 3 Xrotation Yrotation Zrotation 
												End Site
												{
													OFFSET 	 0.0	 0.0	 0.0
												}
											}
										}
									}
								}
							}
						}
					}
				}
			}
		}
	}
	JOINT L_upLeg_jnt
	{
		OFFSET 	 9.08852107047	 -2.72297847509	 0.380716185869
		CHANNELS 3 Xrotation Yrotation Zrotation 
		JOINT L_lowLeg_jnt
		{
			OFFSET 	 40.5695924758	 -1.22799350983e-14	 5.32268673581e-15
			CHANNELS 3 Xrotation Yrotation Zrotation 
			JOINT L_foot_jnt
			{
				OFFSET 	 42.4790931702	 -6.2449025011e-15	 6.38145106047e-16
				CHANNELS 3 Xrotation Yrotation Zrotation 
				JOINT L_toe_jnt
				{
					OFFSET 	 15.687816658	 -6.63428434952e-16	 -2.73421826224e-13
					CHANNELS 3 Xrotation Yrotation Zrotation 
					JOINT L_toe_tip_jnt
					{
						OFFSET 	 5.39696829796	 2.20271491269e-15	 -2.70720591761e-16
						CHANNELS 3 Xrotation Yrotation Zrotation 
						End Site
						{
							OFFSET 	 0.0	 0.0	 0.0
						}
					}
				}
			}
		}
	}
	JOINT R_upLeg_jnt
	{
		OFFSET 	 -9.08852652073	 -2.7229494071	 0.38071679145
		CHANNELS 3 Xrotation Yrotation Zrotation 
		JOINT R_lowLeg_jnt
		{
			OFFSET 	 40.569512539	 -4.88282267454e-15	 9.49295270552e-15
			CHANNELS 3 Xrotation Yrotation Zrotation 
			JOINT R_foot_jnt
			{
				OFFSET 	 42.4791949081	 1.95635863195e-14	 1.49072767341e-16
				CHANNELS 3 Xrotation Yrotation Zrotation 
				JOINT R_toe_jnt
				{
					OFFSET 	 15.6878130245	 -1.08754703614e-14	 -1.69712188774e-15
					CHANNELS 3 Xrotation Yrotation Zrotation 
					JOINT R_toe_tip_jnt
					{
						OFFSET 	 5.39697132587	 1.37914765693e-15	 2.77664087833e-16
						CHANNELS 3 Xrotation Yrotation Zrotation 
						End Site
						{
							OFFSET 	 0.0	 0.0	 0.0
						}
					}
				}
			}
		}
	}
}

MOTION
Frames: 2
Frame Time: 0.013888888888888888
-6.74375064176 -0.17241862935 -11.5262747812 180.0 -4.4281676825300025 180.0 -2.652392839010002 -3.9680619532099777 0.3624933808919946 -1.1217379727400005 6.348350995225672e-14 1.3344288896827308e-14 0.1947823395869997 0.5128012828220134 1.956223097169975 -0.0 -89.99999999999997 84.03772082479998 90.00000000000003 -17.091410291000003 -90.00000000000001 160.78170320400002 82.41377661530001 -4.560005295640002 42.45091089409999 -8.190156934260004 9.34108240188 63.3347211664 15.075180426899987 33.67947588200001 18.282422870300003 -31.738617925099984 10.367384799099982 16.728926701200002 5.263443829949994 2.76502633776 0.0 -2.226388277024462e-14 0.0 0.0 -2.226388277024462e-14 0.0 4.473743625509999 -2.321075269190018 11.56884383650001 22.8349134404 -4.471898928039988 -9.02651648891 17.014644401900004 -0.6116804444459818 2.0940108163799978 17.257936335699984 2.938830121590052 -0.834782462464007 -50.3007304348 -69.3908391849 63.177874652000035 4.444551215460003 7.822159013800018 -3.669059640000003 22.0084158746 -6.60855453065002 7.861723825520016 31.20310505420001 0.5546347487309796 -2.118126375609995 13.19929387300001 -0.4316479193909597 -0.727811840873023 35.06118709140004 -49.501241186600005 104.67703300300005 6.720323850240001 10.019565029099995 -13.99113152249997 23.083223260399997 -1.7509149761200242 7.771794353439987 28.77647197629998 2.946397839589994 -1.2360980072100134 18.960767629000006 -3.5397446357900026 2.803137195480002 28.464684138499944 -44.627042065599994 116.792246439 20.384807987000016 6.69134174487003 -29.43640418080001 9.695490328340004 -2.178441961770007 9.87012694461 18.1366013281 7.202293378570016 3.4757782693299957 33.15435119309998 0.6677654177010302 -0.804289198422009 30.583259853399987 -40.49745655300001 125.815147729 33.323184506 -14.082087779399995 81.82362281260001 -0.9291987753899995 2.3796069531699837 -3.4778741683500094 16.561295636500006 2.9629739502500185 3.4671100518399984 -79.75992819420006 -62.361229357199996 -8.385388226050008 149.6618828860001 87.17792833719997 -165.27253907200011 42.45091089409999 -8.190156934260004 9.34108240188 61.78855829640003 -3.8578796589899897 64.73773820499999 -1.7122429191800006 -37.425017474 -0.9522922795139994 2.7105421622099994 6.825241405989947 -2.746829997059998 -0.0 0.0 -0.0 -0.0 0.0 -0.0 4.473743625509999 -2.321075269190018 11.56884383650001 22.8349134404 -4.471898928039988 -9.02651648891 17.014644401900004 -0.6116804444459818 2.0940108163799978 17.257936335699984 2.938830121590052 -0.834782462464007 -50.3007304348 -69.3908391849 63.177874652000035 4.444551215460003 7.822159013800018 -3.669059640000003 22.0084158746 -6.60855453065002 7.861723825520016 31.20310505420001 0.5546347487309796 -2.118126375609995 13.19929387300001 -0.4316479193909597 -0.727811840873023 35.06118709140004 -49.501241186600005 104.67703300300005 20.384807987000016 6.69134174487003 -29.43640418080001 9.695490328340004 -2.178441961770007 9.87012694461 18.1366013281 7.202293378570016 3.4757782693299957 33.15435119309998 0.6677654177010302 -0.804289198422009 30.583259853399987 -40.49745655300001 125.815147729 6.720323850240001 10.019565029099995 -13.99113152249997 23.083223260399997 -1.7509149761200242 7.771794353439987 28.77647197629998 2.946397839589994 -1.2360980072100134 18.960767629000006 -3.5397446357900026 2.803137195480002 28.464684138499944 -44.627042065599994 116.792246439 33.323184506 -14.082087779399995 81.82362281260001 -0.9291987753899995 2.3796069531699837 -3.4778741683500094 16.561295636500006 2.9629739502500185 3.4671100518399984 -79.75992819420006 -62.361229357199996 -8.385388226050008 -175.11329617100017 78.9993779139 89.7077596250002 0.009751875941751796 -0.02604713864730994 20.525486865499996 0.41646660438301003 0.6070299499660127 -77.5365896314 -2.645673530640001 1.1568051304799973 -25.403543930400005 -87.46988539590026 88.1975256862 -89.72536569400052 9.351385530979979 74.75871529079998 -129.48294732500003 0.02072413904041539 -0.02989814760254926 34.72811555980001 -4.391776047829994 -2.89286347374999 -58.7662764777 2.639611815260005 -1.1541597751599835 -25.40370150320001 87.47006108029959 -88.19752720140002 90.26800732169953
-6.73210886343 -0.33270332683 -12.3123221172 -180.0 -4.51815823698 -180.0 -2.6537586817799994 -3.895522635310009 0.37972409364200577 -1.1217379727400005 6.348350995225672e-14 1.3344288896827308e-14 0.18951734153200028 0.5037621486839797 1.9218008333400012 -0.0 -89.99999999999997 84.03772082479998 90.00000000000003 -17.091410291000003 -90.00000000000001 160.62886566900002 82.41201584929999 -4.404523242080017 42.45091089409999 -8.190156934260004 9.34108240188 63.4769974206 15.428028528500004 33.568799131300025 18.073727471300003 -31.7452375538 10.264699734000002 16.728926701200002 5.263443829949994 2.76502633776 0.0 -2.226388277024462e-14 0.0 0.0 -2.226388277024462e-14 0.0 4.473743625509999 -2.321075269190018 11.56884383650001 22.8349134404 -4.471898928039988 -9.02651648891 17.014644401900004 -0.6116804444459818 2.0940108163799978 17.257936335699984 2.938830121590052 -0.834782462464007 -50.3007304348 -69.3908391849 63.177874652000035 4.444551215460003 7.822159013800018 -3.669059640000003 22.0084158746 -6.60855453065002 7.861723825520016 31.20310505420001 0.5546347487309796 -2.118126375609995 13.19929387300001 -0.4316479193909597 -0.727811840873023 35.06118709140004 -49.501241186600005 104.67703300300005 6.720323850240001 10.019565029099995 -13.99113152249997 23.083223260399997 -1.7509149761200242 7.771794353439987 28.77647197629998 2.946397839589994 -1.2360980072100134 18.960767629000006 -3.5397446357900026 2.803137195480002 28.464684138499944 -44.627042065599994 116.792246439 20.384807987000016 6.69134174487003 -29.43640418080001 9.695490328340004 -2.178441961770007 9.87012694461 18.1366013281 7.202293378570016 3.4757782693299957 33.15435119309998 0.6677654177010302 -0.804289198422009 30.583259853399987 -40.49745655300001 125.815147729 33.323184506 -14.082087779399995 81.82362281260001 -0.9291987753899995 2.3796069531699837 -3.4778741683500094 16.561295636500006 2.9629739502500185 3.4671100518399984 -79.75992819420006 -62.361229357199996 -8.385388226050008 149.26207644899986 87.17219871279998 -164.8709613159998 42.45091089409999 -8.190156934260004 9.34108240188 61.6517832588 -3.794356753309988 64.66265949600003 -2.0520330251199996 -38.270667061900006 -1.2648165025399993 2.7105421622099994 6.825241405989947 -2.746829997059998 -0.0 0.0 -0.0 -0.0 0.0 -0.0 4.473743625509999 -2.321075269190018 11.56884383650001 22.8349134404 -4.471898928039988 -9.02651648891 17.014644401900004 -0.6116804444459818 2.0940108163799978 17.257936335699984 2.938830121590052 -0.834782462464007 -50.3007304348 -69.3908391849 63.177874652000035 4.444551215460003 7.822159013800018 -3.669059640000003 22.0084158746 -6.60855453065002 7.861723825520016 31.20310505420001 0.5546347487309796 -2.118126375609995 13.19929387300001 -0.4316479193909597 -0.727811840873023 35.06118709140004 -49.501241186600005 104.67703300300005 20.384807987000016 6.69134174487003 -29.43640418080001 9.695490328340004 -2.178441961770007 9.87012694461 18.1366013281 7.202293378570016 3.4757782693299957 33.15435119309998 0.6677654177010302 -0.804289198422009 30.583259853399987 -40.49745655300001 125.815147729 6.720323850240001 10.019565029099995 -13.99113152249997 23.083223260399997 -1.7509149761200242 7.771794353439987 28.77647197629998 2.946397839589994 -1.2360980072100134 18.960767629000006 -3.5397446357900026 2.803137195480002 28.464684138499944 -44.627042065599994 116.792246439 33.323184506 -14.082087779399995 81.82362281260001 -0.9291987753899995 2.3796069531699837 -3.4778741683500094 16.561295636500006 2.9629739502500185 3.4671100518399984 -79.75992819420006 -62.361229357199996 -8.385388226050008 -174.10582388599994 78.93602902509998 89.10354440409996 0.010411594593403397 -0.0275748912955186 20.685216046300006 0.6230313859460272 0.6743970583600337 -77.8072016791 -2.645673530640001 1.1568051304799973 -25.403543930400005 -87.46988539590026 88.1975256862 -89.72536569400052 8.182813068839907 75.00543379140001 -128.62706982599994 0.01129954412249198 -0.017120097686773285 33.42553274959999 -4.673350570689994 -3.0580354605099878 -58.79500751570003 2.639611815260005 -1.1541597751599835 -25.40370150320001 87.47006108029959 -88.19752720140002 90.26800732169953
